<?xml version="1.0" encoding="utf-8"?>
<!-- Generator: Adobe Illustrator 27.2.0, SVG Export Plug-In . SVG Version: 6.00 Build 0)  -->
<svg version="1.1" id="Layer_1" xmlns="http://www.w3.org/2000/svg" xmlns:xlink="http://www.w3.org/1999/xlink" x="0px" y="0px"
	 viewBox="0 0 702.1 595.3" style="enable-background:new 0 0 702.1 595.3;" xml:space="preserve">
<style type="text/css">
	.st0{fill:#FFFFFF;}
</style>
<g>
	<g>
		<g>
			<path class="st0" d="M10.7,479.9v-55c0-2.4,0.2-3.9,0.6-4.5c0.4-0.6,1.5-0.9,3.4-0.9h8.8l39.2,49.9l0.4,0.2v-50.3h7.7
				c0,0-0.2,0.4-0.2,1.1c0,0.6-0.2,1.3-0.2,1.9s0,1.3,0,1.9v50.5c0,2.4-0.2,3.6-0.9,4.3c-0.6,0.4-1.7,0.9-3.6,0.9h-8.1l-39.4-50.3
				l-0.2-0.4v51h-7.5V479.9z"/>
			<path class="st0" d="M113.7,480.8c-4.1,0-7.7-0.2-10.9-0.9s-6-1.9-8.3-3.6c-2.4-1.9-4.1-4.5-5.4-8.1c-1.3-3.6-1.9-8.3-1.9-14.1
				c0-5.8,0.6-10.5,1.9-14.1c1.3-3.6,3-6.2,5.4-8.1c2.4-1.9,5.1-3,8.3-3.6c3.2-0.6,6.9-0.9,10.9-0.9c3.9,0,7.5,0.2,10.7,0.9
				c3.2,0.6,6,1.9,8.1,3.6c2.4,1.9,4.1,4.5,5.1,8.1c1.3,3.6,1.9,8.3,1.9,14.1c0,6-0.6,10.7-1.9,14.3c-1.3,3.6-3,6.2-5.1,8.1
				c-2.4,1.7-4.9,3-8.1,3.6C121.2,480.5,117.7,480.8,113.7,480.8z M113.7,475.6c3.4,0,6.4-0.4,9-1.5c2.6-1.1,4.5-3,5.8-6.2
				c1.3-3,1.9-7.7,1.9-14.1s-0.6-10.9-1.9-14.1c-1.3-3-3.2-5.1-5.8-6.2c-2.6-1.1-5.6-1.5-9-1.5c-3.4,0-6.4,0.4-9,1.5
				s-4.5,3.2-5.8,6.2s-1.9,7.7-1.9,14.1s0.6,10.9,1.9,14.1c1.3,3,3.2,5.1,5.8,6.2C107.3,475.2,110.2,475.6,113.7,475.6z"/>
			<path class="st0" d="M156.3,479.9c-1.9,0-3-1.1-3-3.2v-45.4c2.6-1.1,5.8-2.1,10.1-3c4.1-0.9,9-1.3,14.3-1.3
				c5.1,0,9.2,0.4,12.4,1.1c3.2,0.6,5.6,1.7,7.3,3.2c1.7,1.5,2.8,3.2,3.4,5.4c0.6,2.1,0.9,4.9,0.9,8.1V476c0,0.9-0.2,1.7-0.4,2.4
				c-0.2,0.6-0.6,1.1-1.3,1.3c-0.6,0.2-1.5,0.4-2.6,0.4h-5.1v-37c0-3.4-1.1-6-3.4-7.7c-2.4-1.7-6-2.6-11.1-2.6
				c-1.7,0-3.4,0.2-5.4,0.4c-1.9,0.2-3.9,0.6-5.6,1.1c-1.7,0.4-3.2,1.1-4.3,1.9v43.9h-6.2V479.9z"/>
			<path class="st0" d="M253,479.9v-55.7c0-1.1,0-1.9,0.2-2.6c0-0.6,0.4-1.1,0.9-1.5c0.4-0.4,1.3-0.4,2.6-0.4h52v5.8h-45.6v20.1
				h41.7v5.8h-41.7v28.7H253V479.9z"/>
			<path class="st0" d="M328.8,427.7v35.5c0,4.3,1.3,7.5,3.6,9.2c2.6,1.7,6.2,2.8,11.6,2.8c5.6,0,9.4-0.9,11.8-2.8
				c2.4-1.9,3.6-4.9,3.6-9.2v-35.5c0,0,0.4,0,0.9,0c0.4,0,1.1,0,1.5,0c0.6,0,1.1,0,1.7,0c0.4,0,0.9,0,1.1,0c1.1,0,1.9,0,2.6,0.2
				c0.6,0.2,1.1,0.4,1.3,1.1c0.2,0.4,0.4,1.5,0.4,2.6v30c0,4.3-0.6,7.9-1.9,10.9c-1.3,2.8-3.9,4.9-7.3,6.2
				c-3.6,1.3-8.8,1.9-15.4,1.9c-6.2,0-10.9-0.6-14.6-1.7c-3.6-1.1-6-3-7.5-5.8c-1.5-2.8-2.1-6.4-2.1-10.9v-30.6c0-1.5,0.2-2.6,0.6-3
				c0.4-0.4,1.5-0.9,2.8-0.9c0.9,0,1.9,0,2.8,0S327.8,427.7,328.8,427.7z"/>
			<path class="st0" d="M386.2,479.9c-1.9,0-3-1.1-3-3.2v-45.4c2.6-1.1,5.8-2.1,10.1-3s9-1.3,14.3-1.3c5.1,0,9.2,0.4,12.4,1.1
				s5.6,1.7,7.3,3.2c1.7,1.5,2.8,3.2,3.4,5.4s0.9,4.9,0.9,8.1V476c0,0.9-0.2,1.7-0.4,2.4c-0.2,0.6-0.6,1.1-1.3,1.3
				c-0.6,0.2-1.5,0.4-2.6,0.4h-5.1v-37c0-3.4-1.1-6-3.4-7.7c-2.4-1.7-6-2.6-11.1-2.6c-1.7,0-3.4,0.2-5.4,0.4
				c-1.9,0.2-3.9,0.6-5.6,1.1c-1.7,0.4-3.2,1.1-4.3,1.9v43.9h-6.2V479.9z"/>
			<path class="st0" d="M468.4,494.9c-1.9,0-4.1,0-6.4-0.2c-2.4-0.2-4.7-0.4-6.9-0.9c-2.1-0.4-4.1-1.1-5.4-1.7
				c-1.5-0.6-2.1-1.7-2.1-2.8c0-0.4,0-0.9,0-1.3s0-0.9,0-1.1c1.3,0.6,3,1.3,5.4,1.7c2.4,0.4,4.7,0.9,7.5,1.3
				c2.6,0.2,4.9,0.4,6.9,0.4c5.1,0,9-0.6,11.8-2.1c2.8-1.5,4.7-3.9,5.8-7.5c1.1-3.4,1.3-7.9,1.1-13.7h1.9c-0.9,3-2.4,5.4-4.5,6.9
				s-4.5,2.6-7.5,3.2c-2.8,0.6-6,0.9-9.2,0.9c-5.1,0-9.2-0.6-12.6-1.7c-3.4-1.3-5.8-3.6-7.3-7.1c-1.5-3.6-2.4-8.8-2.4-15.6
				c0-5.6,0.4-10.1,1.5-13.5c1.1-3.4,2.6-6,4.7-7.9c2.1-1.9,5.1-3,8.6-3.6c3.6-0.6,7.9-1.1,12.8-1.1c1.9,0,4.1,0,6.4,0.2
				c2.4,0.2,4.7,0.4,7.1,0.4s4.5,0.2,6.2,0.4c1.7,0.2,3,0.4,3.6,0.4c0,0.2-0.2,1.1-0.2,2.1c0,1.3-0.2,2.6-0.2,4.1c0,1.5,0,3,0,4.5
				v31c0,6.2-0.9,10.9-2.8,14.6c-1.7,3.6-4.7,6-8.6,7.5C480,494.2,474.8,494.9,468.4,494.9z M468.4,472.4c3.2,0,6.2-0.4,8.6-1.1
				c2.6-0.6,4.5-1.9,6.2-3.6c1.5-1.7,2.4-4.1,2.4-6.9v-27c-0.9-0.2-2.6-0.4-5.4-0.6c-2.8-0.2-6-0.4-9.6-0.4c-4.3,0-7.7,0.6-10.1,1.7
				c-2.4,1.1-4.3,3-5.4,6c-1.1,2.8-1.7,6.9-1.7,12.2c0,5.4,0.4,9.6,1.5,12.4c0.9,3,2.6,4.9,4.7,6C462,472,464.8,472.4,468.4,472.4z"
				/>
			<path class="st0" d="M515.1,420c-1.5,0-2.6-0.2-3.6-0.6c-0.9-0.4-1.3-1.3-1.3-2.8c0-1.5,0.4-2.4,1.3-2.8c0.9-0.4,1.9-0.6,3.4-0.6
				c1.7,0,2.8,0.2,3.6,0.6c0.9,0.4,1.1,1.3,1.1,2.8c0,1.5-0.4,2.4-1.3,2.8C517.6,419.7,516.6,420,515.1,420z M520.6,480.5
				c-4.1,0-6.9-1.1-8.3-3.2c-1.5-2.1-2.1-5.4-2.1-9.6v-40h9.2V467c0,3.6,0.4,6,1.3,7.3c0.9,1.3,2.1,1.9,4.3,1.9c0.6,0,1.5,0,2.6-0.2
				c1.1-0.2,1.7-0.2,1.9-0.4v4.1c-0.2,0-0.9,0.2-1.5,0.4c-0.6,0.2-1.7,0.2-2.8,0.4C523.8,480.3,522.3,480.5,520.6,480.5z"/>
			<path class="st0" d="M562,480.3c-4.9,0-9-0.2-12.2-0.9c-3.2-0.6-5.6-1.7-7.3-3.4c-1.7-1.7-2.8-4.3-3.4-7.7
				c-0.6-3.4-0.9-7.9-0.9-13.7l-0.2-40.9h9v14.3c0.2,0,1.1,0,2.6-0.2c1.5,0,3-0.2,4.9-0.2c1.9,0,3.9-0.2,5.6-0.2
				c1.9,0,3.4-0.2,4.5-0.2c6.2,0,10.9,0.9,14.3,2.6c3.4,1.7,6,4.5,7.3,8.3c1.5,3.9,2.1,9,2.4,15.4c0,6.4-0.6,11.3-1.9,15
				c-1.3,3.6-3,6.2-5.4,7.9c-2.4,1.7-5.1,2.8-8.6,3C569.9,480.1,566,480.3,562,480.3z M562.2,475c4.5,0,8.1-0.4,10.5-1.5
				c2.6-1.1,4.3-3,5.4-6.2c1.1-3,1.7-7.7,1.7-13.9c0-5.1-0.6-9-1.7-12s-2.8-5.1-5.1-6.4c-2.4-1.3-5.6-1.9-9.2-1.9
				c-1.3,0-2.6,0-4.3,0s-3.4,0.2-5.1,0.2c-1.7,0-3.2,0.2-4.5,0.2s-1.9,0-2.4,0v22.3c0,4.3,0.2,7.5,0.4,10.1c0.2,2.6,0.9,4.5,1.9,5.8
				s2.4,2.1,4.5,2.8C556.2,474.8,558.7,475,562.2,475z"/>
			<path class="st0" d="M613.5,480.5c-4.1,0-6.9-0.9-8.6-2.8c-1.7-1.7-2.6-4.9-2.6-9.6V418c0-1.1,0-1.9,0.2-2.6
				c0.2-0.6,0.6-1.1,1.1-1.3c0.6-0.2,1.3-0.4,2.4-0.4h5.6c0,0,0,0.6-0.2,1.7c-0.2,1.1-0.2,2.4-0.2,3.9v47.3c0,3.4,0.4,5.8,1.1,7.3
				c0.6,1.5,2.1,2.1,4.5,2.1c0.6,0,1.5,0,2.6-0.2c1.1-0.2,1.7-0.2,2.1-0.4v4.1c-0.4,0-1.3,0.2-2.6,0.4
				C617.6,480.3,615.9,480.5,613.5,480.5z"/>
			<path class="st0" d="M654.9,480.8c-5.1,0-9.4-0.4-12.8-1.1c-3.4-0.6-6.2-1.9-8.3-3.9c-2.1-1.9-3.6-4.7-4.5-8.1
				c-0.9-3.4-1.3-7.9-1.3-13.5c0-6.2,0.9-11.3,2.4-15.4c1.5-4.1,4.3-7.1,8.3-9c4.1-1.9,9.6-2.8,16.9-2.8c5.6,0,10.1,0.6,13.5,2.1
				s5.8,3.9,7.3,6.9c1.5,3,2.4,7.1,2.4,12v7.5h-37c0-1.1,0.2-1.9,0.9-2.8c0.4-0.6,1.5-1.1,2.8-1.1h25l-0.2-3.9
				c0-5.4-1.3-9.4-3.4-11.8s-6-3.6-11.6-3.6c-4.7,0-8.3,0.6-10.9,2.1c-2.6,1.5-4.5,3.6-5.6,6.9s-1.5,7.5-1.5,12.8
				c0,5.8,0.6,10.1,1.7,13.3c1.3,3,3.2,5.1,6,6.2c2.8,1.1,6.6,1.7,11.3,1.7c1.7,0,3.6,0,5.8-0.2c2.1-0.2,4.3-0.2,6.4-0.4
				c2.1-0.2,4.1-0.4,5.8-0.6c1.7-0.2,3-0.6,3.6-1.1v1.5c0,0.9-0.2,1.7-0.6,2.6c-0.4,0.9-1.5,1.5-3,1.9c-1.9,0.9-4.5,1.3-7.7,1.5
				C663.2,480.5,659.4,480.8,654.9,480.8z"/>
			<path class="st0" d="M39.6,571.1c0,1.5,0,3.4,0,5.4c0,1.9,0,3.6-0.2,4.7c-0.4,2.4-1.3,4.1-2.8,5.6c-1.5,1.5-3.2,2.4-5.1,3
				s-4.3,1.1-6.6,1.1c-1.9,0-3.9,0.2-5.6,0c-1.7,0-3.4-0.2-5.4-0.4c-1.7-0.2-3.9-0.4-6-0.4v-10.3c0.9,0.4,2.1,0.6,4.1,1.1
				c1.7,0.4,3.2,0.6,4.3,0.6c2.1,0,3.6-0.4,4.5-1.5c0.9-1.1,1.3-2.6,1.3-4.5v-45h11.8c1.9,0,3.4,0.2,4.3,0.9
				c0.9,0.4,1.3,1.3,1.3,2.1c0,1.1,0.2,2.1,0.2,3.6L39.6,571.1L39.6,571.1z"/>
			<path class="st0" d="M69.6,590.6v-54.4c0-2.4,0.4-3.9,1.1-4.7c0.6-0.9,2.4-1.3,4.7-1.3h57.4v9.2H87.1v15.2h42v9.2h-42v17.1h45.8
				v9.2H69.6V590.6z"/>
			<path class="st0" d="M175.5,590.6c-2.6,0-4.7-0.4-6.4-1.1c-1.7-0.6-3-1.9-4.1-3.4c-1.1-1.5-1.7-3.6-1.9-6.2l-8.1-49.5l16.3,0.2
				l6.4,41.5c0.4,1.7,0.9,3,1.3,3.6c0.4,0.6,1.5,1.1,2.8,1.1h2.6l10.3-46.2h16.9l11.3,46.2h3c0.9,0,1.7-0.2,2.1-0.9
				c0.4-0.4,0.9-1.3,0.9-2.4l5.1-43h12.2l-6.9,49.9c-0.4,2.8-1.1,4.9-2.1,6.4c-1.1,1.5-2.8,2.6-4.7,3.2c-2.1,0.6-4.7,0.9-7.7,0.9
				h-12.6l-8.6-36.4l-1.3-6l-1.1,6l-7.9,36.4h-17.8V590.6z"/>
			<path class="st0" d="M272.9,590.6v-54.4c0-2.4,0.4-3.9,1.1-4.7c0.6-0.9,2.4-1.3,4.7-1.3h57.4v9.2h-45.8v15.2h42v9.2h-42v17.1
				h45.8v9.2h-63.2V590.6z"/>
			<path class="st0" d="M380,530.2v51h39.2v9.2h-56.7v-54.2c0-1.5,0-2.6,0.2-3.4c0.2-0.9,0.6-1.5,1.5-1.9c0.9-0.4,2.1-0.6,4.3-0.6
				H380z"/>
			<path class="st0" d="M442.5,590.6v-54.4c0-2.4,0.4-3.9,1.1-4.7c0.6-0.9,2.4-1.3,4.7-1.3h57.4v9.2h-45.8v15.2h42v9.2h-42v17.1
				h45.8v9.2h-63.2V590.6z"/>
			<path class="st0" d="M569.7,568.7c-3.9,0-7.5,0-10.7,0c-3.2,0-6.4,0-10.1,0v21.8h-17.3v-52.7c0-2.6,0.6-4.5,1.7-5.8
				c1.1-1.3,3.2-1.9,6.4-1.9c1.3,0,3.2,0,5.8,0c2.6,0,5.4,0,8.3,0s6.4,0,9.6,0c3.4,0,6.6,0,9.6,0s5.8,0,8.1,0.2
				c2.4,0,4.1,0.2,5.1,0.2c4.7,0.4,8.1,1.9,10.3,4.5c2.4,2.6,3.4,6.4,3.4,11.6c0,4.5-0.4,7.9-1.3,10.3c-0.9,2.4-2.1,4.1-4.1,5.1
				c-0.4,0.4-1.1,0.6-2.1,0.9c-0.9,0.2-1.9,0.4-3,0.4v0.4c0.4,0,1.1,0,1.7,0c0.6,0,1.1,0,1.5,0c3.4,0.6,5.4,1.9,6,3.9s1.1,4.1,1.1,6
				v12.8c0,1.3,0.2,2.4,0.4,3c0.2,0.6,0.4,1.1,0.4,1.3h-12.8c-1.9,0-3.4-0.2-4.5-0.9s-1.5-1.9-1.5-4.1v-10.3c0-2.8-0.6-4.5-1.7-5.4
				c-1.3-0.9-3.2-1.3-6.2-1.3h-4.3V568.7z M548.9,560c1.1,0,2.8,0,4.9,0c2.1,0,4.7,0,7.3,0.2c2.6,0,4.9,0,7.3,0c2.1,0,3.9,0,4.7,0
				c2.4,0,4.5-0.9,6.2-2.4c1.9-1.5,2.8-4.3,2.8-8.6c0-2.8-0.4-5.1-1.5-6.9c-1.1-1.7-2.8-2.6-4.9-2.8c-1.5-0.2-3.4-0.2-5.6-0.4
				c-2.4,0-4.7,0-7.1,0s-4.7,0-6.9,0c-2.1,0-3.6,0.2-4.7,0.2c-0.2,0-0.6,0.2-1.3,0.4c-0.6,0.2-1.1,1.1-1.1,2.1v18H548.9z"/>
			<path class="st0" d="M647.2,590.6v-24.2l-24.6-32.8l-2.6-3.2h24.2l16.1,24.2l15.6-24.2h15.8l-3.2,3.6l-23.8,32.3v17.6
				c0,1.9,0,3.2-0.4,4.3c-0.4,1.1-1.3,1.7-2.4,1.9c-1.1,0.4-2.8,0.4-4.9,0.4L647.2,590.6L647.2,590.6z"/>
		</g>
	</g>
	<g>
		<path class="st0" d="M365.4,150l-26.1,33.6h146l-92.1,100c-3.6,3.9-9.4,4.3-13.5,0.9l-60.2-49.9c-6.6-5.6-16.5-4.5-21.6,2.4
			l-15.4,19.9l99.8,82.6c4.7,4.1,11.8,3.4,16.1-1.1l180-195.5H380.2C374.4,142.7,369.1,145.5,365.4,150z"/>
		<path class="st0" d="M584.6,121.3l-6.4-7.5l-15.4-19.9c-6.6-8.6-16.7-13.5-27.6-13.5H382.6l19.9-25.7l7.5-9.8h141.7l-21.2-27.4
			C523.8,8.9,513.8,4,502.9,4h-113l-13.5,17.3L228,211.9l31.7,26.3l91-116.9L584.6,121.3L584.6,121.3z"/>
		<path class="st0" d="M221.6,4.2c-10.7,0-21,4.9-27.6,13.5l-71.3,92.1c-3.9,4.9-3,12.2,1.7,16.3l22.7,18.8l77.1-99.8h53.5
			l-91.2,117.1c-4.1,5.4-3.2,12.8,1.9,17.1l22.3,18.4L361.4,4.4H221.6V4.2z"/>
	</g>
</g>
</svg>
