<?xml version="1.0" encoding="utf-8"?>
<!-- Generator: Adobe Illustrator 22.1.0, SVG Export Plug-In . SVG Version: 6.00 Build 0)  -->
<svg version="1.1" id="Layer_1" xmlns="http://www.w3.org/2000/svg" xmlns:xlink="http://www.w3.org/1999/xlink" x="0px" y="0px"
	 viewBox="0 0 841.9 595.3" style="enable-background:new 0 0 841.9 595.3;" xml:space="preserve">
<style type="text/css">
	.st0{fill:#9CA1AA;}
</style>
<g>
	<g>
		<g>
			<path class="st0" d="M261.3,377.2v-25.7c0-1.1,0.1-1.8,0.3-2.1c0.2-0.3,0.7-0.4,1.6-0.4h4.1l18.3,23.3l0.2,0.1v-23.5h3.6
				c0,0-0.1,0.2-0.1,0.5c0,0.3-0.1,0.6-0.1,0.9s0,0.6,0,0.9v23.6c0,1.1-0.1,1.7-0.4,2c-0.3,0.2-0.8,0.4-1.7,0.4h-3.8l-18.4-23.5
				l-0.1-0.2v23.8H261.3z"/>
			<path class="st0" d="M309.4,377.6c-1.9,0-3.6-0.1-5.1-0.4c-1.5-0.3-2.8-0.9-3.9-1.7c-1.1-0.9-1.9-2.1-2.5-3.8
				c-0.6-1.7-0.9-3.9-0.9-6.6c0-2.7,0.3-4.9,0.9-6.6c0.6-1.7,1.4-2.9,2.5-3.8c1.1-0.9,2.4-1.4,3.9-1.7c1.5-0.3,3.2-0.4,5.1-0.4
				c1.8,0,3.5,0.1,5,0.4c1.5,0.3,2.8,0.9,3.8,1.7c1.1,0.9,1.9,2.1,2.4,3.8c0.6,1.7,0.9,3.9,0.9,6.6c0,2.8-0.3,5-0.9,6.7
				c-0.6,1.7-1.4,2.9-2.4,3.8c-1.1,0.8-2.3,1.4-3.8,1.7C312.9,377.5,311.3,377.6,309.4,377.6z M309.4,375.2c1.6,0,3-0.2,4.2-0.7
				s2.1-1.4,2.7-2.9c0.6-1.4,0.9-3.6,0.9-6.6s-0.3-5.1-0.9-6.6c-0.6-1.4-1.5-2.4-2.7-2.9s-2.6-0.7-4.2-0.7c-1.6,0-3,0.2-4.2,0.7
				c-1.2,0.5-2.1,1.5-2.7,2.9c-0.6,1.4-0.9,3.6-0.9,6.6s0.3,5.1,0.9,6.6c0.6,1.4,1.5,2.4,2.7,2.9C306.4,375,307.8,375.2,309.4,375.2
				z"/>
			<path class="st0" d="M329.3,377.2c-0.9,0-1.4-0.5-1.4-1.5v-21.2c1.2-0.5,2.7-1,4.7-1.4c1.9-0.4,4.2-0.6,6.7-0.6
				c2.4,0,4.3,0.2,5.8,0.5c1.5,0.3,2.6,0.8,3.4,1.5c0.8,0.7,1.3,1.5,1.6,2.5c0.3,1,0.4,2.3,0.4,3.8v14.6c0,0.4-0.1,0.8-0.2,1.1
				c-0.1,0.3-0.3,0.5-0.6,0.6c-0.3,0.1-0.7,0.2-1.2,0.2h-2.4V360c0-1.6-0.5-2.8-1.6-3.6c-1.1-0.8-2.8-1.2-5.2-1.2
				c-0.8,0-1.6,0.1-2.5,0.2c-0.9,0.1-1.8,0.3-2.6,0.5c-0.8,0.2-1.5,0.5-2,0.9v20.5H329.3z"/>
			<path class="st0" d="M374.5,377.2v-26c0-0.5,0-0.9,0.1-1.2c0-0.3,0.2-0.5,0.4-0.7s0.6-0.2,1.2-0.2h24.3v2.7h-21.3v9.4h19.5v2.7
				h-19.5v13.4H374.5z"/>
			<path class="st0" d="M409.9,352.8v16.6c0,2,0.6,3.5,1.7,4.3c1.2,0.8,2.9,1.3,5.4,1.3c2.6,0,4.4-0.4,5.5-1.3
				c1.1-0.9,1.7-2.3,1.7-4.3v-16.6c0,0,0.2,0,0.4,0c0.2,0,0.5,0,0.7,0c0.3,0,0.5,0,0.8,0c0.2,0,0.4,0,0.5,0c0.5,0,0.9,0,1.2,0.1
				c0.3,0.1,0.5,0.2,0.6,0.5c0.1,0.2,0.2,0.7,0.2,1.2v14c0,2-0.3,3.7-0.9,5.1c-0.6,1.3-1.8,2.3-3.4,2.9c-1.7,0.6-4.1,0.9-7.2,0.9
				c-2.9,0-5.1-0.3-6.8-0.8c-1.7-0.5-2.8-1.4-3.5-2.7c-0.7-1.3-1-3-1-5.1v-14.3c0-0.7,0.1-1.2,0.3-1.4c0.2-0.2,0.7-0.4,1.3-0.4
				c0.4,0,0.9,0,1.3,0S409.4,352.8,409.9,352.8z"/>
			<path class="st0" d="M436.7,377.2c-0.9,0-1.4-0.5-1.4-1.5v-21.2c1.2-0.5,2.7-1,4.7-1.4s4.2-0.6,6.7-0.6c2.4,0,4.3,0.2,5.8,0.5
				c1.5,0.3,2.6,0.8,3.4,1.5c0.8,0.7,1.3,1.5,1.6,2.5s0.4,2.3,0.4,3.8v14.6c0,0.4-0.1,0.8-0.2,1.1c-0.1,0.3-0.3,0.5-0.6,0.6
				c-0.3,0.1-0.7,0.2-1.2,0.2h-2.4V360c0-1.6-0.5-2.8-1.6-3.6s-2.8-1.2-5.2-1.2c-0.8,0-1.6,0.1-2.5,0.2c-0.9,0.1-1.8,0.3-2.6,0.5
				c-0.8,0.2-1.5,0.5-2,0.9v20.5H436.7z"/>
			<path class="st0" d="M475.1,384.2c-0.9,0-1.9,0-3-0.1c-1.1-0.1-2.2-0.2-3.2-0.4s-1.9-0.5-2.5-0.8c-0.7-0.3-1-0.8-1-1.3
				c0-0.2,0-0.4,0-0.6s0-0.4,0-0.5c0.6,0.3,1.4,0.6,2.5,0.8c1.1,0.2,2.2,0.4,3.5,0.6c1.2,0.1,2.3,0.2,3.2,0.2c2.4,0,4.2-0.3,5.5-1
				c1.3-0.7,2.2-1.8,2.7-3.5c0.5-1.6,0.6-3.7,0.5-6.4h0.9c-0.4,1.4-1.1,2.5-2.1,3.2c-1,0.7-2.1,1.2-3.5,1.5
				c-1.3,0.3-2.8,0.4-4.3,0.4c-2.4,0-4.3-0.3-5.9-0.8c-1.6-0.6-2.7-1.7-3.4-3.3c-0.7-1.7-1.1-4.1-1.1-7.3c0-2.6,0.2-4.7,0.7-6.3
				c0.5-1.6,1.2-2.8,2.2-3.7c1-0.9,2.4-1.4,4-1.7c1.7-0.3,3.7-0.5,6-0.5c0.9,0,1.9,0,3,0.1s2.2,0.2,3.3,0.2s2.1,0.1,2.9,0.2
				s1.4,0.2,1.7,0.2c0,0.1-0.1,0.5-0.1,1c0,0.6-0.1,1.2-0.1,1.9c0,0.7,0,1.4,0,2.1v14.5c0,2.9-0.4,5.1-1.3,6.8
				c-0.8,1.7-2.2,2.8-4,3.5C480.5,383.9,478.1,384.2,475.1,384.2z M475.1,373.7c1.5,0,2.9-0.2,4-0.5c1.2-0.3,2.1-0.9,2.9-1.7
				c0.7-0.8,1.1-1.9,1.1-3.2v-12.6c-0.4-0.1-1.2-0.2-2.5-0.3c-1.3-0.1-2.8-0.2-4.5-0.2c-2,0-3.6,0.3-4.7,0.8c-1.1,0.5-2,1.4-2.5,2.8
				c-0.5,1.3-0.8,3.2-0.8,5.7c0,2.5,0.2,4.5,0.7,5.8c0.4,1.4,1.2,2.3,2.2,2.8C472.1,373.5,473.4,373.7,475.1,373.7z"/>
			<path class="st0" d="M496.9,349.2c-0.7,0-1.2-0.1-1.7-0.3c-0.4-0.2-0.6-0.6-0.6-1.3c0-0.7,0.2-1.1,0.6-1.3
				c0.4-0.2,0.9-0.3,1.6-0.3c0.8,0,1.3,0.1,1.7,0.3c0.4,0.2,0.5,0.6,0.5,1.3c0,0.7-0.2,1.1-0.6,1.3
				C498.1,349.1,497.6,349.2,496.9,349.2z M499.5,377.5c-1.9,0-3.2-0.5-3.9-1.5c-0.7-1-1-2.5-1-4.5v-18.7h4.3v18.4
				c0,1.7,0.2,2.8,0.6,3.4c0.4,0.6,1,0.9,2,0.9c0.3,0,0.7,0,1.2-0.1c0.5-0.1,0.8-0.1,0.9-0.2v1.9c-0.1,0-0.4,0.1-0.7,0.2
				c-0.3,0.1-0.8,0.1-1.3,0.2C501,377.4,500.3,377.5,499.5,377.5z"/>
			<path class="st0" d="M518.8,377.4c-2.3,0-4.2-0.1-5.7-0.4c-1.5-0.3-2.6-0.8-3.4-1.6c-0.8-0.8-1.3-2-1.6-3.6
				c-0.3-1.6-0.4-3.7-0.4-6.4l-0.1-19.1h4.2v6.7c0.1,0,0.5,0,1.2-0.1c0.7,0,1.4-0.1,2.3-0.1c0.9,0,1.8-0.1,2.6-0.1
				c0.9,0,1.6-0.1,2.1-0.1c2.9,0,5.1,0.4,6.7,1.2c1.6,0.8,2.8,2.1,3.4,3.9c0.7,1.8,1,4.2,1.1,7.2c0,3-0.3,5.3-0.9,7
				c-0.6,1.7-1.4,2.9-2.5,3.7c-1.1,0.8-2.4,1.3-4,1.4C522.5,377.3,520.7,377.4,518.8,377.4z M518.9,374.9c2.1,0,3.8-0.2,4.9-0.7
				c1.2-0.5,2-1.4,2.5-2.9c0.5-1.4,0.8-3.6,0.8-6.5c0-2.4-0.3-4.2-0.8-5.6c-0.5-1.4-1.3-2.4-2.4-3c-1.1-0.6-2.6-0.9-4.3-0.9
				c-0.6,0-1.2,0-2,0c-0.8,0-1.6,0.1-2.4,0.1c-0.8,0-1.5,0.1-2.1,0.1c-0.6,0-0.9,0-1.1,0v10.4c0,2,0.1,3.5,0.2,4.7
				c0.1,1.2,0.4,2.1,0.9,2.7s1.1,1,2.1,1.3C516.1,374.8,517.3,374.9,518.9,374.9z"/>
			<path class="st0" d="M542.9,377.5c-1.9,0-3.2-0.4-4-1.3c-0.8-0.8-1.2-2.3-1.2-4.5v-23.4c0-0.5,0-0.9,0.1-1.2
				c0.1-0.3,0.3-0.5,0.5-0.6c0.3-0.1,0.6-0.2,1.1-0.2h2.6c0,0,0,0.3-0.1,0.8s-0.1,1.1-0.1,1.8V371c0,1.6,0.2,2.7,0.5,3.4
				c0.3,0.7,1,1,2.1,1c0.3,0,0.7,0,1.2-0.1c0.5-0.1,0.8-0.1,1-0.2v1.9c-0.2,0-0.6,0.1-1.2,0.2C544.8,377.4,544,377.5,542.9,377.5z"
				/>
			<path class="st0" d="M562.2,377.6c-2.4,0-4.4-0.2-6-0.5c-1.6-0.3-2.9-0.9-3.9-1.8c-1-0.9-1.7-2.2-2.1-3.8
				c-0.4-1.6-0.6-3.7-0.6-6.3c0-2.9,0.4-5.3,1.1-7.2c0.7-1.9,2-3.3,3.9-4.2c1.9-0.9,4.5-1.3,7.9-1.3c2.6,0,4.7,0.3,6.3,1
				c1.6,0.7,2.7,1.8,3.4,3.2c0.7,1.4,1.1,3.3,1.1,5.6v3.5H556c0-0.5,0.1-0.9,0.4-1.3c0.2-0.3,0.7-0.5,1.3-0.5h11.7l-0.1-1.8
				c0-2.5-0.6-4.4-1.6-5.5c-1-1.1-2.8-1.7-5.4-1.7c-2.2,0-3.9,0.3-5.1,1c-1.2,0.7-2.1,1.7-2.6,3.2c-0.5,1.5-0.7,3.5-0.7,6
				c0,2.7,0.3,4.7,0.8,6.2c0.6,1.4,1.5,2.4,2.8,2.9s3.1,0.8,5.3,0.8c0.8,0,1.7,0,2.7-0.1c1-0.1,2-0.1,3-0.2c1-0.1,1.9-0.2,2.7-0.3
				c0.8-0.1,1.4-0.3,1.7-0.5v0.7c0,0.4-0.1,0.8-0.3,1.2c-0.2,0.4-0.7,0.7-1.4,0.9c-0.9,0.4-2.1,0.6-3.6,0.7
				C566.1,377.5,564.3,377.6,562.2,377.6z"/>
			<path class="st0" d="M274.8,419.8c0,0.7,0,1.6,0,2.5c0,0.9,0,1.7-0.1,2.2c-0.2,1.1-0.6,1.9-1.3,2.6c-0.7,0.7-1.5,1.1-2.4,1.4
				c-0.9,0.3-2,0.5-3.1,0.5c-0.9,0-1.8,0.1-2.6,0c-0.8,0-1.6-0.1-2.5-0.2c-0.8-0.1-1.8-0.2-2.8-0.2v-4.8c0.4,0.2,1,0.3,1.9,0.5
				c0.8,0.2,1.5,0.3,2,0.3c1,0,1.7-0.2,2.1-0.7c0.4-0.5,0.6-1.2,0.6-2.1v-21h5.5c0.9,0,1.6,0.1,2,0.4c0.4,0.2,0.6,0.6,0.6,1
				c0,0.5,0.1,1,0.1,1.7V419.8z"/>
			<path class="st0" d="M288.8,428.9v-25.4c0-1.1,0.2-1.8,0.5-2.2c0.3-0.4,1.1-0.6,2.2-0.6h26.8v4.3H297v7.1h19.6v4.3H297v8h21.4
				v4.3H288.8z"/>
			<path class="st0" d="M338.3,428.9c-1.2,0-2.2-0.2-3-0.5c-0.8-0.3-1.4-0.9-1.9-1.6c-0.5-0.7-0.8-1.7-0.9-2.9l-3.8-23.1l7.6,0.1
				l3,19.4c0.2,0.8,0.4,1.4,0.6,1.7c0.2,0.3,0.7,0.5,1.3,0.5h1.2l4.8-21.6h7.9l5.3,21.6h1.4c0.4,0,0.8-0.1,1-0.4
				c0.2-0.2,0.4-0.6,0.4-1.1l2.4-20.1h5.7l-3.2,23.3c-0.2,1.3-0.5,2.3-1,3c-0.5,0.7-1.3,1.2-2.2,1.5c-1,0.3-2.2,0.4-3.6,0.4h-5.9
				l-4-17l-0.6-2.8l-0.5,2.8l-3.7,17H338.3z"/>
			<path class="st0" d="M383.8,428.9v-25.4c0-1.1,0.2-1.8,0.5-2.2c0.3-0.4,1.1-0.6,2.2-0.6h26.8v4.3h-21.4v7.1h19.6v4.3h-19.6v8
				h21.4v4.3H383.8z"/>
			<path class="st0" d="M433.8,400.7v23.8h18.3v4.3h-26.5v-25.3c0-0.7,0-1.2,0.1-1.6s0.3-0.7,0.7-0.9c0.4-0.2,1-0.3,2-0.3H433.8z"/>
			<path class="st0" d="M463,428.9v-25.4c0-1.1,0.2-1.8,0.5-2.2c0.3-0.4,1.1-0.6,2.2-0.6h26.8v4.3h-21.4v7.1h19.6v4.3h-19.6v8h21.4
				v4.3H463z"/>
			<path class="st0" d="M522.4,418.7c-1.8,0-3.5,0-5,0c-1.5,0-3,0-4.7,0v10.2h-8.1v-24.6c0-1.2,0.3-2.1,0.8-2.7
				c0.5-0.6,1.5-0.9,3-0.9c0.6,0,1.5,0,2.7,0c1.2,0,2.5,0,3.9,0c1.4,0,3,0,4.5,0c1.6,0,3.1,0,4.5,0c1.4,0,2.7,0,3.8,0.1
				c1.1,0,1.9,0.1,2.4,0.1c2.2,0.2,3.8,0.9,4.8,2.1c1.1,1.2,1.6,3,1.6,5.4c0,2.1-0.2,3.7-0.6,4.8c-0.4,1.1-1,1.9-1.9,2.4
				c-0.2,0.2-0.5,0.3-1,0.4c-0.4,0.1-0.9,0.2-1.4,0.2v0.2c0.2,0,0.5,0,0.8,0c0.3,0,0.5,0,0.7,0c1.6,0.3,2.5,0.9,2.8,1.8
				c0.3,0.9,0.5,1.9,0.5,2.8v6c0,0.6,0.1,1.1,0.2,1.4s0.2,0.5,0.2,0.6h-6c-0.9,0-1.6-0.1-2.1-0.4c-0.5-0.3-0.7-0.9-0.7-1.9v-4.8
				c0-1.3-0.3-2.1-0.8-2.5c-0.6-0.4-1.5-0.6-2.9-0.6H522.4z M512.7,414.6c0.5,0,1.3,0,2.3,0c1,0,2.2,0,3.4,0.1c1.2,0,2.3,0,3.4,0
				c1,0,1.8,0,2.2,0c1.1,0,2.1-0.4,2.9-1.1c0.9-0.7,1.3-2,1.3-4c0-1.3-0.2-2.4-0.7-3.2c-0.5-0.8-1.3-1.2-2.3-1.3
				c-0.7-0.1-1.6-0.1-2.6-0.2c-1.1,0-2.2,0-3.3,0c-1.1,0-2.2,0-3.2,0c-1,0-1.7,0.1-2.2,0.1c-0.1,0-0.3,0.1-0.6,0.2
				c-0.3,0.1-0.5,0.5-0.5,1V414.6z"/>
			<path class="st0" d="M558.6,428.9v-11.3l-11.5-15.3l-1.2-1.5h11.3l7.5,11.3l7.3-11.3h7.4l-1.5,1.7l-11.1,15.1v8.2
				c0,0.9,0,1.5-0.2,2c-0.2,0.5-0.6,0.8-1.1,0.9c-0.5,0.2-1.3,0.2-2.3,0.2H558.6z"/>
		</g>
	</g>
	<g>
		<path class="st0" d="M427,223.1l-12.2,15.7h68.2l-43,46.7c-1.7,1.8-4.4,2-6.3,0.4l-28.1-23.3c-3.1-2.6-7.7-2.1-10.1,1.1l-7.2,9.3
			l46.6,38.6c2.2,1.9,5.5,1.6,7.5-0.5l84.1-91.3h-92.6C431.2,219.7,428.7,221,427,223.1z"/>
		<path class="st0" d="M529.4,209.7l-3-3.5l-7.2-9.3c-3.1-4-7.8-6.3-12.9-6.3h-71.3l9.3-12l3.5-4.6h66.2l-9.9-12.8
			c-3.1-4-7.8-6.3-12.9-6.3h-52.8l-6.3,8.1l-69.3,89l14.8,12.3l42.5-54.6H529.4z"/>
		<path class="st0" d="M359.8,155c-5,0-9.8,2.3-12.9,6.3l-33.3,43c-1.8,2.3-1.4,5.7,0.8,7.6l10.6,8.8l36-46.6h25l-42.6,54.7
			c-1.9,2.5-1.5,6,0.9,8l10.4,8.6l70.4-90.3H359.8z"/>
	</g>
</g>
</svg>
